<?xml version="1.0" encoding="UTF-8" standalone="no"?>
<!-- Created with Inkscape (http://www.inkscape.org/) -->

<svg
   xmlns:dc="http://purl.org/dc/elements/1.1/"
   xmlns:cc="http://creativecommons.org/ns#"
   xmlns:rdf="http://www.w3.org/1999/02/22-rdf-syntax-ns#"
   xmlns:svg="http://www.w3.org/2000/svg"
   xmlns="http://www.w3.org/2000/svg"
   xmlns:sodipodi="http://sodipodi.sourceforge.net/DTD/sodipodi-0.dtd"
   xmlns:inkscape="http://www.inkscape.org/namespaces/inkscape"
   width="50mm"
   height="60mm"
   viewBox="0 0 210 297"
   version="1.1"
   id="svg8"
   inkscape:version="0.92.2 5c3e80d, 2017-08-06"
   sodipodi:docname="mobiki_logo_with_letter.svg">
  <defs
     id="defs2" />
  <sodipodi:namedview
     id="base"
     pagecolor="#ffffff"
     bordercolor="#666666"
     borderopacity="1.0"
     inkscape:pageopacity="0.0"
     inkscape:pageshadow="2"
     inkscape:zoom="0.5"
     inkscape:cx="341.13767"
     inkscape:cy="540.16299"
     inkscape:document-units="mm"
     inkscape:current-layer="g4601"
     showgrid="false"
     inkscape:measure-start="0,0"
     inkscape:measure-end="0,0"
     inkscape:window-width="1280"
     inkscape:window-height="708"
     inkscape:window-x="0"
     inkscape:window-y="1"
     inkscape:window-maximized="1" />
  <metadata
     id="metadata5">
    <rdf:RDF>
      <cc:Work
         rdf:about="">
        <dc:format>image/svg+xml</dc:format>
        <dc:type
           rdf:resource="http://purl.org/dc/dcmitype/StillImage" />
        <dc:title></dc:title>
      </cc:Work>
    </rdf:RDF>
  </metadata>
  <g
     inkscape:label="Layer 1"
     inkscape:groupmode="layer"
     id="layer1">
    <g
       id="g27"
       transform="matrix(0.33863449,0,0,0.27728727,-101.67036,198.41902)" />
    <g
       id="g4601"
       transform="translate(-48.154167,-54.504167)">
      <g
         id="g4606"
         transform="matrix(0.47406621,0,0,0.47406621,128.03511,125.65)">
        <path
           style="fill:#ed7b00;fill-opacity:1;stroke:none;stroke-width:0.25259984px;stroke-linecap:butt;stroke-linejoin:miter;stroke-opacity:1"
           d="m -172.09527,247.43359 7.82593,11.69133 25.06527,-21.63121 -1.20628,81.56485 15.18538,0.3416 0.26458,-95.22877 22.50196,-17.88489 7.689486,-28.30783 -7.180146,7.6257 0.14797,-12.98072 -17.93906,0.60619 -0.26459,28.42964 z"
           id="path4565"
           inkscape:connector-curvature="0"
           sodipodi:nodetypes="ccccccccccccc" />
        <g
           id="g4587"
           transform="matrix(0.33358793,0,0,0.36143973,-142.28392,142.55892)"
           style="fill:#93d5f7;fill-opacity:1">
          <path
             id="path4585"
             d="m 256,32 c -74,0 -134.2,58.7 -134.2,132.7 0,16.4 3.5,34.3 9.8,50.4 h -0.1 l 0.6,1.2 c 0.5,1.1 1,2.2 1.5,3.3 L 256,480 377.8,220.9 l 0.6,-1.2 c 0.5,-1.1 1.1,-2.2 1.6,-3.4 l 0.4,-1.1 c 6.5,-16.1 9.8,-33.1 9.8,-50.3 C 390.2,90.7 330,32 256,32 Z m 0,174.9 c -25.9,0 -46.9,-21 -46.9,-46.9 0,-25.9 21,-46.9 46.9,-46.9 25.9,0 46.9,21 46.9,46.9 0,25.9 -21,46.9 -46.9,46.9 z"
             inkscape:connector-curvature="0"
             style="fill:#93d5f7;fill-opacity:1" />
        </g>
      </g>
      <text
         xml:space="preserve"
         style="font-style:normal;font-variant:normal;font-weight:bold;font-stretch:normal;font-size:32.86978531px;line-height:1.25;font-family:sans-serif;-inkscape-font-specification:'sans-serif Bold';letter-spacing:0px;word-spacing:0px;fill:#ed7b00;fill-opacity:1;stroke:none;stroke-width:0.82174456"
         x="116.15422"
         y="273.40109"
         id="text15"><tspan
           sodipodi:role="line"
           id="tspan13"
           x="116.15422"
           y="273.40109"
           style="font-style:normal;font-variant:normal;font-weight:bold;font-stretch:normal;font-family:sans-serif;-inkscape-font-specification:'sans-serif Bold';fill:#ed7b00;fill-opacity:1;stroke-width:0.82174456">mobiki</tspan></text>
      <text
         xml:space="preserve"
         style="font-style:normal;font-weight:normal;font-size:10.58333302px;line-height:1.25;font-family:sans-serif;letter-spacing:0px;word-spacing:0px;fill:#000000;fill-opacity:1;stroke:none;stroke-width:0.26458332"
         x="74.612503"
         y="300.70416"
         id="text4516"><tspan
           sodipodi:role="line"
           id="tspan4514"
           x="74.612503"
           y="310.06793"
           style="stroke-width:0.26458332" /></text>
    </g>
  </g>
</svg>
